<svg width="68" height="68" viewBox="0 0 68 68" fill="none" xmlns="http://www.w3.org/2000/svg">
<path d="M46.75 29.75C46.75 36.805 41.055 42.5 34 42.5C26.945 42.5 21.25 36.805 21.25 29.75C21.25 22.695 26.945 17 34 17C41.055 17 46.75 22.695 46.75 29.75Z" fill="#075E02"/>
<path fill-rule="evenodd" clip-rule="evenodd" d="M68 34C68 52.785 52.785 68 34 68C15.215 68 0 52.785 0 34C0 15.215 15.215 0 34 0C52.785 0 68 15.215 68 34ZM17 58.4375C17.68 57.307 24.2675 46.75 33.9575 46.75C43.605 46.75 50.235 57.3325 50.915 58.4375C54.8669 55.7047 58.0959 52.0528 60.3243 47.796C62.5527 43.5392 63.7137 38.8048 63.7075 34C63.7075 17.5525 50.405 4.25 33.9575 4.25C17.51 4.25 4.2075 17.5525 4.2075 34C4.2075 44.115 9.265 53.0825 17 58.4375Z" fill="#075E02"/>
</svg>
